{"title":"La chasse à l'homme 1964 Audiard.avi","uid":7844418,"size":725152952,"categoryP":"video","categoryS":"movies","magnet":"?xt=urn:btih:3bfc61981d78c0dc0b921ef68ba377a31b3e9028&amp;dn=La+chasse+%26agrave%3B+l%27homme+1964+Audiard.avi&amp;tr=udp%3A%2F%2Ftracker.openbittorrent.com%3A80&amp;tr=udp%3A%2F%2Fopen.demonii.com%3A1337&amp;tr=udp%3A%2F%2Ftracker.coppersurfer.tk%3A6969&amp;tr=udp%3A%2F%2Fexodus.desync.com%3A6969","seeders":0,"leechers":1,"uploader":"Bonie75","files":-1,"time":1353432177,"description":"FrancaisAudiardAudiard...LA.CHASSE.A.L.HOMME...1964..DVDRIP..[rare].AVI\nFormat                                   : AVI\nFormat/Info                              : Audio Video Interleave\nFile size                                : 692 MiB\nDuration                                 : 1h 26mn\nOverall bit rate                         : 1 111 Kbps\n\nVideo\nID                                       : 0\nFormat                                   : MPEG-4 Visual\nFormat settings, BVOP                    : Yes\nFormat settings, QPel                    : No\nFormat settings, GMC                     : No warppoints\nFormat settings, Matrix                  : Default (H.263)\nCodec ID                                 : DX50\nCodec ID/Hint                            : DivX 5\nDuration                                 : 1h 26mn\nBit rate                                 : 970 Kbps\nWidth                                    : 720 pixels\nHeight                                   : 496 pixels\nDisplay aspect ratio                     : 3:2\nFrame rate                               : 25.000 fps\nColor space                              : YUV\nChroma subsampling                       : 4:2:0\nBit depth                                : 8 bits\nScan type                                : Progressive\nCompression mode                         : Lossy\nBits/(Pixel*Frame)                       : 0.109\nStream size                              : 604 MiB (87%)\nTitle                                    : DVD2VIDEO\nWriting library                          : DivX 5.1.1 (Maupiti) (UTC 2003-11-19)\n\nAudio\nID                                       : 1\nFormat                                   : MPEG Audio\nFormat version                           : Version 1\nFormat profile                           : Layer 3\nMode                                     : Joint stereo\nMode extension                           : MS Stereo\nCodec ID                                 : 55\nCodec ID/Hint                            : MP3\nDuration                                 : 1h 26mn\nBit rate mode                            : Constant\nBit rate                                 : 128 Kbps\nChannel(s)                               : 2 channels\nSampling rate                            : 48.0 KHz\nCompression mode                         : Lossy\nStream size                              : 79.6 MiB (12%)\nAlignment                                : Split accross interleaves\nInterleave, duration                     : 24 ms (0.60 video frame)\nTitle                                    : DVD2AUDIO00\n","torrent":{"xt":"urn:btih:3bfc61981d78c0dc0b921ef68ba377a31b3e9028","amp;dn":"La+chasse+%26agrave%3B+l%27homme+1964+Audiard.avi","amp;tr":["udp%3A%2F%2Ftracker.openbittorrent.com%3A80","udp%3A%2F%2Fopen.demonii.com%3A1337","udp%3A%2F%2Ftracker.coppersurfer.tk%3A6969","udp%3A%2F%2Fexodus.desync.com%3A6969"],"infoHash":"3bfc61981d78c0dc0b921ef68ba377a31b3e9028","infoHashBuffer":{"type":"Buffer","data":[59,252,97,152,29,120,192,220,11,146,30,246,139,163,119,163,27,62,144,40]},"announce":[],"urlList":[]}}